<mxfile host="app.diagrams.net" modified="2024-02-26T07:34:05.170Z" agent="Mozilla/5.0 (Windows NT 10.0; Win64; x64) AppleWebKit/537.36 (KHTML, like Gecko) Chrome/121.0.0.0 Safari/537.36 Edg/121.0.0.0" version="23.1.6" etag="MAAq_iK1cMkO_pJUPsy9" type="github">
  <diagram name="第 1 页" id="MY_HjnwUicQFtT10PGo_">
    <mxGraphModel>
      <root>
        <mxCell id="0" />
        <mxCell id="1" parent="0" />
      </root>
    </mxGraphModel>
  </diagram>
</mxfile>
